<svg xmlns="http://www.w3.org/2000/svg" width="1170" height="600" viewBox="0 0 1170 600"><g transform="translate(0,0)"><rect x="1" y="1" width="88" height="118" rx="7" fill="#fffaf0" stroke="#d6cbb7"/><text x="8" y="25" font-family="Georgia,serif" font-size="21" font-weight="bold" fill="#20312f">A</text><text x="8" y="45" font-size="20" fill="#20312f">♠</text><text x="45" y="88" text-anchor="middle" font-size="45" fill="#20312f">♠</text></g><g transform="translate(90,0)"><rect x="1" y="1" width="88" height="118" rx="7" fill="#fffaf0" stroke="#d6cbb7"/><text x="8" y="25" font-family="Georgia,serif" font-size="21" font-weight="bold" fill="#20312f">2</text><text x="8" y="45" font-size="20" fill="#20312f">♠</text><text x="45" y="88" text-anchor="middle" font-size="45" fill="#20312f">♠</text></g><g transform="translate(180,0)"><rect x="1" y="1" width="88" height="118" rx="7" fill="#fffaf0" stroke="#d6cbb7"/><text x="8" y="25" font-family="Georgia,serif" font-size="21" font-weight="bold" fill="#20312f">3</text><text x="8" y="45" font-size="20" fill="#20312f">♠</text><text x="45" y="88" text-anchor="middle" font-size="45" fill="#20312f">♠</text></g><g transform="translate(270,0)"><rect x="1" y="1" width="88" height="118" rx="7" fill="#fffaf0" stroke="#d6cbb7"/><text x="8" y="25" font-family="Georgia,serif" font-size="21" font-weight="bold" fill="#20312f">4</text><text x="8" y="45" font-size="20" fill="#20312f">♠</text><text x="45" y="88" text-anchor="middle" font-size="45" fill="#20312f">♠</text></g><g transform="translate(360,0)"><rect x="1" y="1" width="88" height="118" rx="7" fill="#fffaf0" stroke="#d6cbb7"/><text x="8" y="25" font-family="Georgia,serif" font-size="21" font-weight="bold" fill="#20312f">5</text><text x="8" y="45" font-size="20" fill="#20312f">♠</text><text x="45" y="88" text-anchor="middle" font-size="45" fill="#20312f">♠</text></g><g transform="translate(450,0)"><rect x="1" y="1" width="88" height="118" rx="7" fill="#fffaf0" stroke="#d6cbb7"/><text x="8" y="25" font-family="Georgia,serif" font-size="21" font-weight="bold" fill="#20312f">6</text><text x="8" y="45" font-size="20" fill="#20312f">♠</text><text x="45" y="88" text-anchor="middle" font-size="45" fill="#20312f">♠</text></g><g transform="translate(540,0)"><rect x="1" y="1" width="88" height="118" rx="7" fill="#fffaf0" stroke="#d6cbb7"/><text x="8" y="25" font-family="Georgia,serif" font-size="21" font-weight="bold" fill="#20312f">7</text><text x="8" y="45" font-size="20" fill="#20312f">♠</text><text x="45" y="88" text-anchor="middle" font-size="45" fill="#20312f">♠</text></g><g transform="translate(630,0)"><rect x="1" y="1" width="88" height="118" rx="7" fill="#fffaf0" stroke="#d6cbb7"/><text x="8" y="25" font-family="Georgia,serif" font-size="21" font-weight="bold" fill="#20312f">8</text><text x="8" y="45" font-size="20" fill="#20312f">♠</text><text x="45" y="88" text-anchor="middle" font-size="45" fill="#20312f">♠</text></g><g transform="translate(720,0)"><rect x="1" y="1" width="88" height="118" rx="7" fill="#fffaf0" stroke="#d6cbb7"/><text x="8" y="25" font-family="Georgia,serif" font-size="21" font-weight="bold" fill="#20312f">9</text><text x="8" y="45" font-size="20" fill="#20312f">♠</text><text x="45" y="88" text-anchor="middle" font-size="45" fill="#20312f">♠</text></g><g transform="translate(810,0)"><rect x="1" y="1" width="88" height="118" rx="7" fill="#fffaf0" stroke="#d6cbb7"/><text x="8" y="25" font-family="Georgia,serif" font-size="21" font-weight="bold" fill="#20312f">10</text><text x="8" y="45" font-size="20" fill="#20312f">♠</text><text x="45" y="88" text-anchor="middle" font-size="45" fill="#20312f">♠</text></g><g transform="translate(900,0)"><rect x="1" y="1" width="88" height="118" rx="7" fill="#fffaf0" stroke="#d6cbb7"/><text x="8" y="25" font-family="Georgia,serif" font-size="21" font-weight="bold" fill="#20312f">J</text><text x="8" y="45" font-size="20" fill="#20312f">♠</text><text x="45" y="88" text-anchor="middle" font-size="45" fill="#20312f">♠</text></g><g transform="translate(990,0)"><rect x="1" y="1" width="88" height="118" rx="7" fill="#fffaf0" stroke="#d6cbb7"/><text x="8" y="25" font-family="Georgia,serif" font-size="21" font-weight="bold" fill="#20312f">Q</text><text x="8" y="45" font-size="20" fill="#20312f">♠</text><text x="45" y="88" text-anchor="middle" font-size="45" fill="#20312f">♠</text></g><g transform="translate(1080,0)"><rect x="1" y="1" width="88" height="118" rx="7" fill="#fffaf0" stroke="#d6cbb7"/><text x="8" y="25" font-family="Georgia,serif" font-size="21" font-weight="bold" fill="#20312f">K</text><text x="8" y="45" font-size="20" fill="#20312f">♠</text><text x="45" y="88" text-anchor="middle" font-size="45" fill="#20312f">♠</text></g><g transform="translate(0,120)"><rect x="1" y="1" width="88" height="118" rx="7" fill="#fffaf0" stroke="#d6cbb7"/><text x="8" y="25" font-family="Georgia,serif" font-size="21" font-weight="bold" fill="#b53632">A</text><text x="8" y="45" font-size="20" fill="#b53632">♥</text><text x="45" y="88" text-anchor="middle" font-size="45" fill="#b53632">♥</text></g><g transform="translate(90,120)"><rect x="1" y="1" width="88" height="118" rx="7" fill="#fffaf0" stroke="#d6cbb7"/><text x="8" y="25" font-family="Georgia,serif" font-size="21" font-weight="bold" fill="#b53632">2</text><text x="8" y="45" font-size="20" fill="#b53632">♥</text><text x="45" y="88" text-anchor="middle" font-size="45" fill="#b53632">♥</text></g><g transform="translate(180,120)"><rect x="1" y="1" width="88" height="118" rx="7" fill="#fffaf0" stroke="#d6cbb7"/><text x="8" y="25" font-family="Georgia,serif" font-size="21" font-weight="bold" fill="#b53632">3</text><text x="8" y="45" font-size="20" fill="#b53632">♥</text><text x="45" y="88" text-anchor="middle" font-size="45" fill="#b53632">♥</text></g><g transform="translate(270,120)"><rect x="1" y="1" width="88" height="118" rx="7" fill="#fffaf0" stroke="#d6cbb7"/><text x="8" y="25" font-family="Georgia,serif" font-size="21" font-weight="bold" fill="#b53632">4</text><text x="8" y="45" font-size="20" fill="#b53632">♥</text><text x="45" y="88" text-anchor="middle" font-size="45" fill="#b53632">♥</text></g><g transform="translate(360,120)"><rect x="1" y="1" width="88" height="118" rx="7" fill="#fffaf0" stroke="#d6cbb7"/><text x="8" y="25" font-family="Georgia,serif" font-size="21" font-weight="bold" fill="#b53632">5</text><text x="8" y="45" font-size="20" fill="#b53632">♥</text><text x="45" y="88" text-anchor="middle" font-size="45" fill="#b53632">♥</text></g><g transform="translate(450,120)"><rect x="1" y="1" width="88" height="118" rx="7" fill="#fffaf0" stroke="#d6cbb7"/><text x="8" y="25" font-family="Georgia,serif" font-size="21" font-weight="bold" fill="#b53632">6</text><text x="8" y="45" font-size="20" fill="#b53632">♥</text><text x="45" y="88" text-anchor="middle" font-size="45" fill="#b53632">♥</text></g><g transform="translate(540,120)"><rect x="1" y="1" width="88" height="118" rx="7" fill="#fffaf0" stroke="#d6cbb7"/><text x="8" y="25" font-family="Georgia,serif" font-size="21" font-weight="bold" fill="#b53632">7</text><text x="8" y="45" font-size="20" fill="#b53632">♥</text><text x="45" y="88" text-anchor="middle" font-size="45" fill="#b53632">♥</text></g><g transform="translate(630,120)"><rect x="1" y="1" width="88" height="118" rx="7" fill="#fffaf0" stroke="#d6cbb7"/><text x="8" y="25" font-family="Georgia,serif" font-size="21" font-weight="bold" fill="#b53632">8</text><text x="8" y="45" font-size="20" fill="#b53632">♥</text><text x="45" y="88" text-anchor="middle" font-size="45" fill="#b53632">♥</text></g><g transform="translate(720,120)"><rect x="1" y="1" width="88" height="118" rx="7" fill="#fffaf0" stroke="#d6cbb7"/><text x="8" y="25" font-family="Georgia,serif" font-size="21" font-weight="bold" fill="#b53632">9</text><text x="8" y="45" font-size="20" fill="#b53632">♥</text><text x="45" y="88" text-anchor="middle" font-size="45" fill="#b53632">♥</text></g><g transform="translate(810,120)"><rect x="1" y="1" width="88" height="118" rx="7" fill="#fffaf0" stroke="#d6cbb7"/><text x="8" y="25" font-family="Georgia,serif" font-size="21" font-weight="bold" fill="#b53632">10</text><text x="8" y="45" font-size="20" fill="#b53632">♥</text><text x="45" y="88" text-anchor="middle" font-size="45" fill="#b53632">♥</text></g><g transform="translate(900,120)"><rect x="1" y="1" width="88" height="118" rx="7" fill="#fffaf0" stroke="#d6cbb7"/><text x="8" y="25" font-family="Georgia,serif" font-size="21" font-weight="bold" fill="#b53632">J</text><text x="8" y="45" font-size="20" fill="#b53632">♥</text><text x="45" y="88" text-anchor="middle" font-size="45" fill="#b53632">♥</text></g><g transform="translate(990,120)"><rect x="1" y="1" width="88" height="118" rx="7" fill="#fffaf0" stroke="#d6cbb7"/><text x="8" y="25" font-family="Georgia,serif" font-size="21" font-weight="bold" fill="#b53632">Q</text><text x="8" y="45" font-size="20" fill="#b53632">♥</text><text x="45" y="88" text-anchor="middle" font-size="45" fill="#b53632">♥</text></g><g transform="translate(1080,120)"><rect x="1" y="1" width="88" height="118" rx="7" fill="#fffaf0" stroke="#d6cbb7"/><text x="8" y="25" font-family="Georgia,serif" font-size="21" font-weight="bold" fill="#b53632">K</text><text x="8" y="45" font-size="20" fill="#b53632">♥</text><text x="45" y="88" text-anchor="middle" font-size="45" fill="#b53632">♥</text></g><g transform="translate(0,240)"><rect x="1" y="1" width="88" height="118" rx="7" fill="#fffaf0" stroke="#d6cbb7"/><text x="8" y="25" font-family="Georgia,serif" font-size="21" font-weight="bold" fill="#20312f">A</text><text x="8" y="45" font-size="20" fill="#20312f">♣</text><text x="45" y="88" text-anchor="middle" font-size="45" fill="#20312f">♣</text></g><g transform="translate(90,240)"><rect x="1" y="1" width="88" height="118" rx="7" fill="#fffaf0" stroke="#d6cbb7"/><text x="8" y="25" font-family="Georgia,serif" font-size="21" font-weight="bold" fill="#20312f">2</text><text x="8" y="45" font-size="20" fill="#20312f">♣</text><text x="45" y="88" text-anchor="middle" font-size="45" fill="#20312f">♣</text></g><g transform="translate(180,240)"><rect x="1" y="1" width="88" height="118" rx="7" fill="#fffaf0" stroke="#d6cbb7"/><text x="8" y="25" font-family="Georgia,serif" font-size="21" font-weight="bold" fill="#20312f">3</text><text x="8" y="45" font-size="20" fill="#20312f">♣</text><text x="45" y="88" text-anchor="middle" font-size="45" fill="#20312f">♣</text></g><g transform="translate(270,240)"><rect x="1" y="1" width="88" height="118" rx="7" fill="#fffaf0" stroke="#d6cbb7"/><text x="8" y="25" font-family="Georgia,serif" font-size="21" font-weight="bold" fill="#20312f">4</text><text x="8" y="45" font-size="20" fill="#20312f">♣</text><text x="45" y="88" text-anchor="middle" font-size="45" fill="#20312f">♣</text></g><g transform="translate(360,240)"><rect x="1" y="1" width="88" height="118" rx="7" fill="#fffaf0" stroke="#d6cbb7"/><text x="8" y="25" font-family="Georgia,serif" font-size="21" font-weight="bold" fill="#20312f">5</text><text x="8" y="45" font-size="20" fill="#20312f">♣</text><text x="45" y="88" text-anchor="middle" font-size="45" fill="#20312f">♣</text></g><g transform="translate(450,240)"><rect x="1" y="1" width="88" height="118" rx="7" fill="#fffaf0" stroke="#d6cbb7"/><text x="8" y="25" font-family="Georgia,serif" font-size="21" font-weight="bold" fill="#20312f">6</text><text x="8" y="45" font-size="20" fill="#20312f">♣</text><text x="45" y="88" text-anchor="middle" font-size="45" fill="#20312f">♣</text></g><g transform="translate(540,240)"><rect x="1" y="1" width="88" height="118" rx="7" fill="#fffaf0" stroke="#d6cbb7"/><text x="8" y="25" font-family="Georgia,serif" font-size="21" font-weight="bold" fill="#20312f">7</text><text x="8" y="45" font-size="20" fill="#20312f">♣</text><text x="45" y="88" text-anchor="middle" font-size="45" fill="#20312f">♣</text></g><g transform="translate(630,240)"><rect x="1" y="1" width="88" height="118" rx="7" fill="#fffaf0" stroke="#d6cbb7"/><text x="8" y="25" font-family="Georgia,serif" font-size="21" font-weight="bold" fill="#20312f">8</text><text x="8" y="45" font-size="20" fill="#20312f">♣</text><text x="45" y="88" text-anchor="middle" font-size="45" fill="#20312f">♣</text></g><g transform="translate(720,240)"><rect x="1" y="1" width="88" height="118" rx="7" fill="#fffaf0" stroke="#d6cbb7"/><text x="8" y="25" font-family="Georgia,serif" font-size="21" font-weight="bold" fill="#20312f">9</text><text x="8" y="45" font-size="20" fill="#20312f">♣</text><text x="45" y="88" text-anchor="middle" font-size="45" fill="#20312f">♣</text></g><g transform="translate(810,240)"><rect x="1" y="1" width="88" height="118" rx="7" fill="#fffaf0" stroke="#d6cbb7"/><text x="8" y="25" font-family="Georgia,serif" font-size="21" font-weight="bold" fill="#20312f">10</text><text x="8" y="45" font-size="20" fill="#20312f">♣</text><text x="45" y="88" text-anchor="middle" font-size="45" fill="#20312f">♣</text></g><g transform="translate(900,240)"><rect x="1" y="1" width="88" height="118" rx="7" fill="#fffaf0" stroke="#d6cbb7"/><text x="8" y="25" font-family="Georgia,serif" font-size="21" font-weight="bold" fill="#20312f">J</text><text x="8" y="45" font-size="20" fill="#20312f">♣</text><text x="45" y="88" text-anchor="middle" font-size="45" fill="#20312f">♣</text></g><g transform="translate(990,240)"><rect x="1" y="1" width="88" height="118" rx="7" fill="#fffaf0" stroke="#d6cbb7"/><text x="8" y="25" font-family="Georgia,serif" font-size="21" font-weight="bold" fill="#20312f">Q</text><text x="8" y="45" font-size="20" fill="#20312f">♣</text><text x="45" y="88" text-anchor="middle" font-size="45" fill="#20312f">♣</text></g><g transform="translate(1080,240)"><rect x="1" y="1" width="88" height="118" rx="7" fill="#fffaf0" stroke="#d6cbb7"/><text x="8" y="25" font-family="Georgia,serif" font-size="21" font-weight="bold" fill="#20312f">K</text><text x="8" y="45" font-size="20" fill="#20312f">♣</text><text x="45" y="88" text-anchor="middle" font-size="45" fill="#20312f">♣</text></g><g transform="translate(0,360)"><rect x="1" y="1" width="88" height="118" rx="7" fill="#fffaf0" stroke="#d6cbb7"/><text x="8" y="25" font-family="Georgia,serif" font-size="21" font-weight="bold" fill="#b53632">A</text><text x="8" y="45" font-size="20" fill="#b53632">♦</text><text x="45" y="88" text-anchor="middle" font-size="45" fill="#b53632">♦</text></g><g transform="translate(90,360)"><rect x="1" y="1" width="88" height="118" rx="7" fill="#fffaf0" stroke="#d6cbb7"/><text x="8" y="25" font-family="Georgia,serif" font-size="21" font-weight="bold" fill="#b53632">2</text><text x="8" y="45" font-size="20" fill="#b53632">♦</text><text x="45" y="88" text-anchor="middle" font-size="45" fill="#b53632">♦</text></g><g transform="translate(180,360)"><rect x="1" y="1" width="88" height="118" rx="7" fill="#fffaf0" stroke="#d6cbb7"/><text x="8" y="25" font-family="Georgia,serif" font-size="21" font-weight="bold" fill="#b53632">3</text><text x="8" y="45" font-size="20" fill="#b53632">♦</text><text x="45" y="88" text-anchor="middle" font-size="45" fill="#b53632">♦</text></g><g transform="translate(270,360)"><rect x="1" y="1" width="88" height="118" rx="7" fill="#fffaf0" stroke="#d6cbb7"/><text x="8" y="25" font-family="Georgia,serif" font-size="21" font-weight="bold" fill="#b53632">4</text><text x="8" y="45" font-size="20" fill="#b53632">♦</text><text x="45" y="88" text-anchor="middle" font-size="45" fill="#b53632">♦</text></g><g transform="translate(360,360)"><rect x="1" y="1" width="88" height="118" rx="7" fill="#fffaf0" stroke="#d6cbb7"/><text x="8" y="25" font-family="Georgia,serif" font-size="21" font-weight="bold" fill="#b53632">5</text><text x="8" y="45" font-size="20" fill="#b53632">♦</text><text x="45" y="88" text-anchor="middle" font-size="45" fill="#b53632">♦</text></g><g transform="translate(450,360)"><rect x="1" y="1" width="88" height="118" rx="7" fill="#fffaf0" stroke="#d6cbb7"/><text x="8" y="25" font-family="Georgia,serif" font-size="21" font-weight="bold" fill="#b53632">6</text><text x="8" y="45" font-size="20" fill="#b53632">♦</text><text x="45" y="88" text-anchor="middle" font-size="45" fill="#b53632">♦</text></g><g transform="translate(540,360)"><rect x="1" y="1" width="88" height="118" rx="7" fill="#fffaf0" stroke="#d6cbb7"/><text x="8" y="25" font-family="Georgia,serif" font-size="21" font-weight="bold" fill="#b53632">7</text><text x="8" y="45" font-size="20" fill="#b53632">♦</text><text x="45" y="88" text-anchor="middle" font-size="45" fill="#b53632">♦</text></g><g transform="translate(630,360)"><rect x="1" y="1" width="88" height="118" rx="7" fill="#fffaf0" stroke="#d6cbb7"/><text x="8" y="25" font-family="Georgia,serif" font-size="21" font-weight="bold" fill="#b53632">8</text><text x="8" y="45" font-size="20" fill="#b53632">♦</text><text x="45" y="88" text-anchor="middle" font-size="45" fill="#b53632">♦</text></g><g transform="translate(720,360)"><rect x="1" y="1" width="88" height="118" rx="7" fill="#fffaf0" stroke="#d6cbb7"/><text x="8" y="25" font-family="Georgia,serif" font-size="21" font-weight="bold" fill="#b53632">9</text><text x="8" y="45" font-size="20" fill="#b53632">♦</text><text x="45" y="88" text-anchor="middle" font-size="45" fill="#b53632">♦</text></g><g transform="translate(810,360)"><rect x="1" y="1" width="88" height="118" rx="7" fill="#fffaf0" stroke="#d6cbb7"/><text x="8" y="25" font-family="Georgia,serif" font-size="21" font-weight="bold" fill="#b53632">10</text><text x="8" y="45" font-size="20" fill="#b53632">♦</text><text x="45" y="88" text-anchor="middle" font-size="45" fill="#b53632">♦</text></g><g transform="translate(900,360)"><rect x="1" y="1" width="88" height="118" rx="7" fill="#fffaf0" stroke="#d6cbb7"/><text x="8" y="25" font-family="Georgia,serif" font-size="21" font-weight="bold" fill="#b53632">J</text><text x="8" y="45" font-size="20" fill="#b53632">♦</text><text x="45" y="88" text-anchor="middle" font-size="45" fill="#b53632">♦</text></g><g transform="translate(990,360)"><rect x="1" y="1" width="88" height="118" rx="7" fill="#fffaf0" stroke="#d6cbb7"/><text x="8" y="25" font-family="Georgia,serif" font-size="21" font-weight="bold" fill="#b53632">Q</text><text x="8" y="45" font-size="20" fill="#b53632">♦</text><text x="45" y="88" text-anchor="middle" font-size="45" fill="#b53632">♦</text></g><g transform="translate(1080,360)"><rect x="1" y="1" width="88" height="118" rx="7" fill="#fffaf0" stroke="#d6cbb7"/><text x="8" y="25" font-family="Georgia,serif" font-size="21" font-weight="bold" fill="#b53632">K</text><text x="8" y="45" font-size="20" fill="#b53632">♦</text><text x="45" y="88" text-anchor="middle" font-size="45" fill="#b53632">♦</text></g><g transform="translate(0,480)"><rect x="1" y="1" width="88" height="118" rx="7" fill="#fffaf0" stroke="#d6cbb7"/><text x="8" y="25" font-family="Georgia,serif" font-size="21" font-weight="bold" fill="#b53632">大王</text><text x="8" y="45" font-size="20" fill="#b53632">★</text><text x="45" y="88" text-anchor="middle" font-size="45" fill="#b53632">★</text></g><g transform="translate(90,480)"><rect x="1" y="1" width="88" height="118" rx="7" fill="#fffaf0" stroke="#d6cbb7"/><text x="8" y="25" font-family="Georgia,serif" font-size="21" font-weight="bold" fill="#202d35">小王</text><text x="8" y="45" font-size="20" fill="#202d35">★</text><text x="45" y="88" text-anchor="middle" font-size="45" fill="#202d35">★</text></g><g transform="translate(180,480)"><rect x="1" y="1" width="88" height="118" rx="7" fill="#154f47" stroke="#e2c381"/><rect x="9" y="9" width="72" height="102" rx="4" fill="none" stroke="#e2c381"/><path d="M45 30L65 60L45 90L25 60Z" fill="none" stroke="#e2c381" stroke-width="2"/></g></svg>